<svg version="1.1" xmlns="http://www.w3.org/2000/svg" style="display: block;" viewBox="0 0 2048 2048" width="1024" height="1024" preserveAspectRatio="none">
<defs>
	<linearGradient id="Gradient1" gradientUnits="userSpaceOnUse" x1="1150.95" y1="1065.88" x2="1108.6" y2="956.737">
		<stop class="stop0" offset="0" stop-opacity="1" stop-color="rgb(232,208,172)"/>
		<stop class="stop1" offset="1" stop-opacity="1" stop-color="rgb(247,239,211)"/>
	</linearGradient>
</defs>
<path transform="translate(0,0)" fill="rgb(255,255,255)" d="M 0 0 L 2048 0 L 2048 2048 L 0 2048 L 0 0 z"/>
<path transform="translate(0,0)" fill="rgb(50,109,131)" d="M 1000.38 557.399 C 1194.22 544.368 1361.92 690.946 1374.95 884.79 C 1387.98 1078.63 1241.4 1246.34 1047.56 1259.36 C 853.719 1272.39 686.019 1125.81 672.989 931.973 C 659.96 738.132 806.536 570.431 1000.38 557.399 z"/>
<path transform="translate(0,0)" fill="rgb(255,255,255)" d="M 997.171 567.859 C 1185.22 553.067 1349.64 693.542 1364.38 881.591 C 1379.13 1069.64 1238.61 1234.03 1050.56 1248.72 C 862.572 1263.41 698.258 1122.96 683.519 934.977 C 668.779 746.996 809.193 582.647 997.171 567.859 z"/>
<path transform="translate(0,0)" fill="rgb(240,225,195)" d="M 797.957 743.886 C 863.726 746.613 923.946 757.766 981.868 790.747 C 993.626 797.442 1008.52 806.772 1018.11 816.171 L 1017.94 873.001 C 1017.94 877.789 1018.43 898.456 1017.6 901.252 C 1001.53 955.377 945.099 1008.85 918.439 1054.93 C 879.866 1041.07 839.352 1033.36 798.382 1032.08 C 798.109 1008.32 798.226 984.555 798.731 960.798 C 798.872 954.541 798.618 941.093 799.761 935.495 L 799.886 933.15 C 797.986 925.476 798.368 891.029 798.278 880.889 C 797.873 835.283 798.785 789.52 797.957 743.886 z"/>
<path transform="translate(0,0)" fill="rgb(105,166,175)" d="M 799.886 933.15 C 803.691 918.534 806.613 909.259 815.2 896.679 C 835.41 867.072 871.312 854.028 905.958 863.326 C 926.585 868.849 944.171 882.344 954.842 900.84 C 965.724 919.781 966.415 936.801 965.883 957.958 C 922.56 958.105 877.915 958.762 834.677 958.19 C 840.141 973.044 847.457 984.412 862.694 991.17 C 875.542 996.772 890.116 996.911 903.068 991.555 C 911.138 988.202 916.674 983.97 923.095 978.026 C 931.639 984.305 940.739 990.037 949.641 995.817 C 935.579 1013.53 917.159 1024.54 894.513 1027.08 C 871.606 1029.88 848.54 1023.3 830.55 1008.85 C 806.483 989.346 799.107 965.38 799.761 935.495 L 799.886 933.15 z"/>
<path transform="translate(0,0)" fill="rgb(240,225,195)" d="M 882.24 892.413 C 889.583 892.304 896.87 893.712 903.643 896.551 C 918.663 902.927 925.731 913.146 931.376 927.625 L 888.518 927.813 C 870.912 927.882 853.305 927.714 835.703 927.308 C 845.032 905.294 857.789 894.62 882.24 892.413 z"/>
<path transform="translate(0,0)" fill="rgb(134,172,120)" d="M 1132.16 762.855 C 1164.8 751.242 1215.03 743.868 1249.52 743.889 L 1249.1 865.719 C 1249.09 877.469 1249.34 933.789 1247.14 943.204 L 1247.17 945.745 C 1249.5 956.949 1248.4 1017.48 1248.18 1031.91 C 1167.42 1034.28 1091.34 1060.47 1028.95 1112.36 C 1028.58 1083.99 1027.88 1051.87 1028.84 1023.7 C 1047.47 1004.94 1061.79 983.358 1078.11 966.048 C 1094.29 942.854 1107.9 923.523 1117.78 896.824 C 1121.69 886.264 1124.51 876.367 1128.2 865.93 C 1136.25 832.193 1140.11 797.124 1132.16 762.855 z"/>
<path transform="translate(0,0)" fill="rgb(240,225,195)" d="M 1132.16 762.855 C 1164.8 751.242 1215.03 743.868 1249.52 743.889 L 1249.1 865.719 C 1249.09 877.469 1249.34 933.789 1247.14 943.204 C 1245.97 936.591 1244.46 927.929 1242.53 921.632 C 1235.88 899.33 1220.47 880.678 1199.83 869.936 C 1177.26 858.22 1152 858.248 1128.2 865.93 C 1136.25 832.193 1140.11 797.124 1132.16 762.855 z"/>
<path transform="translate(0,0)" fill="url(#Gradient1)" d="M 1247.17 945.745 C 1249.5 956.949 1248.4 1017.48 1248.18 1031.91 C 1167.42 1034.28 1091.34 1060.47 1028.95 1112.36 C 1028.58 1083.99 1027.88 1051.87 1028.84 1023.7 C 1047.47 1004.94 1061.79 983.358 1078.11 966.048 C 1080.87 974.415 1084.56 982.767 1089.48 990.093 C 1102.17 1008.93 1121.84 1021.94 1144.15 1026.23 C 1182.77 1033.55 1221.8 1015.21 1238.35 979.127 C 1243.49 967.937 1245.02 957.728 1247.17 945.745 z"/>
<path transform="translate(0,0)" fill="rgb(240,225,195)" d="M 1211.75 950.441 C 1207.88 968.322 1200.7 981.624 1183.44 989.961 C 1170.66 996.073 1155.97 996.843 1142.62 992.102 C 1113.3 981.771 1101.39 949.993 1112.14 922.558 C 1122.17 896.946 1156.89 886.229 1180.87 897.472 C 1197.56 905.298 1204.41 915.927 1210.58 932.105 C 1214.72 935.965 1218.29 938.515 1222.8 941.839 C 1219.14 944.73 1215.45 947.598 1211.75 950.441 z"/>
<path transform="translate(0,0)" fill="rgb(105,166,175)" d="M 1155.6 920.93 C 1165.4 919.183 1175.16 924.228 1179.41 933.238 C 1183.66 942.249 1181.33 952.988 1173.74 959.439 C 1166.16 965.89 1155.18 966.452 1146.97 960.81 C 1139.6 955.742 1136.02 946.722 1137.91 937.978 C 1139.8 929.234 1146.79 922.499 1155.6 920.93 z"/>
<path transform="translate(0,0)" fill="rgb(255,255,255)" d="M 1155.6 920.93 C 1171.52 909.288 1196.59 928.284 1210.58 932.105 C 1214.72 935.965 1218.29 938.515 1222.8 941.839 C 1219.14 944.73 1215.45 947.598 1211.75 950.441 C 1193.9 962.995 1178.14 971.517 1155.47 967.501 C 1152.37 966.951 1145.56 965.049 1146.97 960.81 C 1155.18 966.452 1166.16 965.89 1173.74 959.439 C 1181.33 952.988 1183.66 942.249 1179.41 933.238 C 1175.16 924.228 1165.4 919.183 1155.6 920.93 z"/>
<path transform="translate(0,0)" fill="rgb(50,109,131)" d="M 1018.61 641.841 C 1027.99 646.088 1052.42 661.291 1062.1 666.974 C 1091.23 683.969 1120.25 701.136 1149.18 718.474 L 1107.74 731.82 C 1147.7 849.712 1087.91 938.658 1011.08 1020.8 C 973.941 1060.51 926.827 1103.89 919.097 1159.32 C 918.468 1178.71 920.489 1187.4 929.074 1204.74 C 855.815 1134 944.702 1043.35 988.404 984.729 C 1039.88 915.679 1064.15 845.414 1034.25 760.699 L 994.212 780.648 C 1001.19 735.599 1011.18 687.684 1018.61 641.841 z"/>
<path transform="translate(0,0)" fill="rgb(134,172,120)" d="M 1266.69 781.084 L 1302.75 780.973 L 1302.9 1086.76 C 1223.33 1082.18 1133.75 1090.39 1058.09 1116.22 L 1028.4 1126.7 C 1094.73 1072.4 1181.65 1050.01 1266.08 1049.05 L 1266.69 781.084 z"/>
<path transform="translate(0,0)" fill="rgb(50,109,131)" d="M 744.985 780.983 L 781.1 780.947 L 781.121 1048.93 C 827.387 1048.66 865.065 1055.88 909.066 1068.24 C 906.243 1073 903.528 1078.76 901.01 1083.76 L 897.206 1093.31 C 848.477 1084.86 794.086 1085.54 744.847 1086.31 L 744.985 780.983 z"/>
<path transform="translate(0,0)" fill="rgb(240,225,195)" d="M 1016.93 1038 C 1019.05 1040.99 1018.77 1104.25 1018.94 1112.97 C 1012.44 1106.46 1006.83 1102.01 999.559 1096.44 C 992.017 1091.28 985.369 1086.62 978.095 1081.01 C 990.497 1066.19 1003.45 1051.85 1016.93 1038 z"/>
<path transform="translate(0,0)" fill="rgb(50,109,131)" d="M 966.631 1093.46 C 975.125 1096.5 1014.69 1119.38 1017.72 1125.7 L 1014.43 1125.01 C 995.458 1117.53 976.947 1112.26 957.455 1106.55 L 966.631 1093.46 z"/>
<path transform="translate(0,0)" fill="rgb(240,225,195)" d="M 1029.29 813.332 L 1031.35 814.471 C 1032.95 822.112 1031.67 850.507 1029.44 858.284 C 1027.91 850.364 1028.81 822.247 1029.29 813.332 z"/>
<path transform="translate(0,0)" fill="rgb(56,57,58)" d="M 973.632 1324.98 C 994.233 1324.88 1041.11 1319.63 1054 1337.29 C 1064.7 1351.96 1058.08 1365.96 1044.1 1375.56 C 1061.6 1384.31 1068.64 1395.05 1062.35 1414.46 C 1048.53 1437.45 998.376 1430.94 973.281 1430.86 C 974.255 1396.22 973.714 1359.67 973.632 1324.98 z"/>
<path transform="translate(0,0)" fill="rgb(255,255,255)" d="M 989.325 1382.47 C 1007.53 1382.33 1054.73 1376.03 1051.01 1403.6 C 1050.14 1410.03 1047.82 1412.16 1043.03 1416.16 C 1030.68 1422.04 1001.28 1420.16 986.559 1420.06 C 986.38 1413.29 985.327 1387.93 987.155 1383.13 L 989.325 1382.47 z"/>
<path transform="translate(0,0)" fill="rgb(255,255,255)" d="M 986.755 1335.96 C 1003.68 1335.79 1066.13 1330.52 1040.59 1366.09 C 1028.12 1374.01 1002.47 1371.54 986.817 1371.29 L 986.755 1335.96 z"/>
<path transform="translate(0,0)" fill="rgb(56,57,58)" d="M 1115.68 1349.02 C 1130.57 1346.29 1145.77 1351.79 1155.46 1363.41 C 1165.16 1375.03 1167.84 1390.98 1162.48 1405.13 C 1157.13 1419.29 1144.56 1429.46 1129.6 1431.75 C 1106.93 1435.22 1085.68 1419.85 1081.87 1397.24 C 1078.07 1374.63 1093.13 1353.15 1115.68 1349.02 z"/>
<path transform="translate(0,0)" fill="rgb(255,255,255)" d="M 1118.43 1360.87 C 1129.05 1359.09 1139.81 1363.16 1146.58 1371.53 C 1153.36 1379.91 1155.1 1391.28 1151.14 1401.29 C 1147.17 1411.31 1138.12 1418.41 1127.45 1419.89 C 1111.29 1422.12 1096.33 1410.95 1093.86 1394.83 C 1091.4 1378.7 1102.34 1363.58 1118.43 1360.87 z"/>
<path transform="translate(0,0)" fill="rgb(56,57,58)" d="M 1215.49 1349.04 C 1230.43 1346.56 1245.55 1352.35 1255.01 1364.17 C 1264.48 1376 1266.82 1392.01 1261.13 1406.05 C 1255.44 1420.09 1242.61 1429.96 1227.58 1431.86 C 1204.96 1434.71 1184.21 1418.94 1180.92 1396.38 C 1177.62 1373.82 1192.99 1352.77 1215.49 1349.04 z"/>
<path transform="translate(0,0)" fill="rgb(255,255,255)" d="M 1217.16 1360.94 C 1227.78 1359.05 1238.59 1363.05 1245.42 1371.39 C 1252.26 1379.73 1254.05 1391.11 1250.12 1401.15 C 1246.18 1411.19 1237.13 1418.32 1226.45 1419.8 C 1210.37 1422.01 1195.47 1410.95 1192.94 1394.92 C 1190.42 1378.89 1201.18 1363.78 1217.16 1360.94 z"/>
<path transform="translate(0,0)" fill="rgb(56,57,58)" d="M 742.617 1349.31 C 744.241 1349.22 745.866 1349.18 747.492 1349.17 C 790.299 1349.24 780.5 1400.48 780.275 1430.59 C 777.079 1430.83 770.905 1431.44 768.426 1429.74 L 768.136 1422.26 C 766.065 1421.13 733.235 1447.19 713.519 1418.07 C 703.114 1388.73 726.551 1384.38 749.88 1384.31 C 754.496 1384.29 761.888 1384.88 766.129 1383.43 C 772.97 1362.54 750.102 1358.9 734.96 1362.09 C 728.013 1363.56 724.85 1365.43 719.104 1369.16 L 714.739 1358.73 C 724.919 1352.55 731.077 1350.83 742.617 1349.31 z"/>
<path transform="translate(0,0)" fill="rgb(255,255,255)" d="M 734.954 1394.14 C 745.847 1393.47 756.347 1393.7 767.245 1393.81 C 767.689 1407.78 767.752 1412.01 754.942 1419.41 C 730.206 1426.97 710.006 1406.71 734.954 1394.14 z"/>
<path transform="translate(0,0)" fill="rgb(56,57,58)" d="M 616.445 1324.91 C 626.276 1324.79 686.419 1323.69 691.545 1325.85 C 691.969 1330.46 692.183 1331.09 691.183 1335.5 C 686.301 1336.73 637.345 1336 629.227 1335.96 L 629.285 1370.75 C 640.47 1370.94 674.947 1369.71 683.577 1371.51 C 684.476 1374.46 684.482 1378.88 682.673 1381.44 C 673.905 1382.86 640.056 1381.97 629.423 1381.9 C 628.541 1391.21 629.289 1409.85 629.553 1419.44 L 694.516 1419.17 L 694.821 1430.87 L 616.33 1430.92 C 616.662 1395.58 616.7 1360.25 616.445 1324.91 z"/>
<path transform="translate(0,0)" fill="rgb(56,57,58)" d="M 1287.43 1317.1 L 1299.99 1317.13 L 1300.27 1392.23 C 1313.01 1379.18 1332.55 1363.44 1346.66 1350.03 L 1363.45 1349.81 C 1353.15 1358.27 1338.9 1372.27 1328.79 1381.63 C 1336.09 1390.56 1344.5 1402.54 1351.5 1411.97 L 1365.59 1430.46 L 1350.82 1430.75 L 1319.27 1389.77 C 1312.7 1395.58 1306.24 1401.52 1299.92 1407.6 L 1299.96 1430.91 L 1287.28 1430.98 L 1287.43 1317.1 z"/>
<path transform="translate(0,0)" fill="rgb(56,57,58)" d="M 870.735 1349.98 L 883.789 1350 C 893.785 1369.53 905.966 1397.76 914.442 1418.07 C 923.674 1395.63 934.333 1372.33 944.181 1350.04 L 956.641 1350.09 L 928.551 1412.75 C 917.491 1438.9 905.601 1478.82 868.612 1454.18 L 874.532 1444.67 C 892.124 1456.46 901.112 1449.33 908.099 1431.48 C 895.932 1404.17 883.081 1377.2 870.735 1349.98 z"/>
<path transform="translate(0,0)" fill="rgb(56,57,58)" d="M 1398.23 1349.23 C 1413.19 1348.44 1419.79 1350.01 1433.8 1355.34 L 1429.46 1366.01 C 1417.47 1360.67 1382.73 1353.28 1385.41 1374.82 C 1394.41 1389.41 1434.9 1382.6 1436.62 1404.96 C 1438.16 1425.03 1420.53 1430.37 1403.67 1431.63 C 1389.45 1430.81 1383.35 1429.32 1370.75 1422.37 C 1372.29 1418.94 1373.8 1414.98 1375.23 1411.46 C 1385.8 1418.22 1395.29 1421.26 1407.99 1420.45 C 1415.91 1419.95 1425.25 1415.88 1423.92 1406.52 C 1413.98 1391.5 1377.7 1398.99 1373.07 1377.09 C 1369.5 1360.27 1384.86 1351.98 1398.23 1349.23 z"/>
<path transform="translate(0,0)" fill="rgb(56,57,58)" d="M 827.081 1349.23 C 842.356 1348.52 848.826 1349.61 863.231 1355.19 L 858.031 1365.82 C 850.79 1362.92 815.063 1351.46 813.879 1373.3 C 813.283 1384.29 850.242 1385.48 858.685 1393.72 C 867.029 1401.86 868.668 1410.17 860.585 1421.32 C 854.283 1429.64 842.83 1430.89 833.253 1431.47 C 820.719 1431 810.748 1429.21 800.044 1422.27 L 804.287 1412.03 C 816.616 1419.51 828.013 1422.51 842.418 1419.87 C 847.374 1419.05 855.854 1411.53 853.022 1406.17 C 849.976 1400.77 841.36 1397.82 835.454 1396.77 C 817.002 1393.51 791.802 1385.23 805.637 1361.47 C 810.452 1353.19 818.079 1351.18 827.081 1349.23 z"/>
</svg>